# xmcd CD database file
#
# Track frame offsets:
#	150
#	18180
#	37047
#
# Disc length: 732 seconds
#
# Revision: 0
# Processed by: cddbd v1.5.1PL2 Copyright (c) Steve Scherf et al.
# Submitted via: CDex 1.51
#
DISCID=1a02da03
DTITLE=YOYOYO - 恋をしよう!
DYEAR=1995
DGENRE=JPop
TTITLE0=恋をしよう!
TTITLE1=Easygoing
TTITLE2=恋をしよう!(オリジナル・カラオケ)
EXTD=YEAR: 1995
EXTT0=
EXTT1=
EXTT2=
PLAYORDER=
